<svg width="512" height="512" viewBox="0 0 512 512" fill="none" xmlns="http://www.w3.org/2000/svg">
<path d="M287.194 506.159C282.201 479.058 276.996 452.998 271.597 427.962C266.18 402.89 260.305 378.595 253.953 355.058C211.503 356.434 174.01 357.351 141.457 357.81C108.94 358.234 84.5737 358.445 68.3415 358.445C28.1138 358.445 8 344.683 8 317.159C8 303.609 12.2698 291.752 20.8446 281.589C29.4548 271.427 41.4525 260.911 56.8378 250.042C78.469 235.186 100.471 220.083 122.825 204.733C145.215 189.348 168.152 173.963 191.636 158.577C183.961 137.37 175.827 116.374 167.217 95.6247C158.642 74.8404 149.855 53.8267 140.822 32.6013L195.023 6.84149C203.581 26.2849 212.05 45.7106 220.43 65.1363C228.793 84.5268 236.592 104.164 243.791 124.066C266.833 109.157 290.317 94.2484 314.224 79.3219C338.167 64.4129 362.568 49.7334 387.41 35.2832L411.829 84.7561C385.611 99.6827 360.098 114.592 335.256 129.501C310.413 144.374 286.012 159.266 262.069 174.174C269.78 194.976 277.031 215.99 283.806 237.198C290.582 258.423 296.88 279.649 302.721 300.856C335.273 299.551 367.808 297.998 400.326 296.198C432.825 294.363 464.902 292.528 496.519 290.694L504 344.26C471.906 346.06 440.059 347.753 408.442 349.341C376.824 350.894 346.336 352.147 316.977 353.082C322.852 375.207 328.057 397.544 332.574 420.128C337.09 442.712 341.36 465.543 345.418 488.585L287.194 506.159ZM72.3643 307.632C100.4 307.208 128.418 306.555 156.419 305.655C184.402 304.72 212.191 304.032 239.768 303.609C235.251 287.341 230.381 271.285 225.159 255.477C219.972 239.668 214.678 224.106 209.279 208.756C161.853 239.915 115.768 271.744 71.0233 304.244L72.3643 307.632Z" fill="#FF5252"/>
<path d="M73.4525 502.3L73.4047 497.64C73.3568 492.979 73.6747 489.031 74.3583 485.797C75.0407 482.444 76.5551 478.663 78.9014 474.456L120.248 399.629L120.219 396.761L53.5577 397.446L53.3478 377.01L143.663 376.082L143.943 403.33L100.318 483.2C98.7931 485.964 97.7431 488.425 97.1679 490.583C96.5926 492.74 96.321 495.372 96.3529 498.479L96.3898 502.065L73.4525 502.3ZM203.524 503.474C193.727 503.575 185.228 501.929 178.024 498.537C170.94 495.144 165.454 490.3 161.566 484.005C157.678 477.71 155.691 470.38 155.605 462.015L155.587 460.222L178.883 459.983L178.899 461.596C178.961 467.571 180.985 472.69 184.971 476.952C189.076 481.093 195.071 483.123 202.955 483.042C210.84 482.961 216.851 480.807 220.99 476.582C225.246 472.235 227.339 466.656 227.269 459.844L227.251 458.051C227.182 451.359 224.977 446.063 220.636 442.163C216.414 438.263 211.138 436.345 204.806 436.41C201.341 436.445 198.479 436.953 196.219 437.932C193.959 438.912 192.12 440.126 190.701 441.575C189.282 443.023 188.102 444.47 187.161 445.914L159.386 446.199L158.664 375.928L244.32 375.048L244.534 395.843L181.815 396.487L182.13 427.141L185.355 427.108C186.534 425.542 188.131 424.031 190.147 422.576C192.164 421.121 194.779 419.899 197.995 418.91C201.211 417.921 205.029 417.404 209.449 417.358C216.856 417.282 223.622 418.766 229.746 421.811C235.871 424.856 240.756 429.407 244.403 435.465C248.168 441.402 250.096 448.793 250.186 457.637L250.208 459.788C250.299 468.631 248.466 476.299 244.71 482.792C241.073 489.284 235.748 494.358 228.737 498.016C221.724 501.554 213.32 503.373 203.524 503.474Z" fill="#FF5252"/>
</svg>
